<?xml version="1.0" encoding="UTF-8"?>
<svg version="1.1" xmlns="http://www.w3.org/2000/svg" width="220" height="220">
<path d="M0,0 L90,0 L90,10 L100,10 L100,20 L110,20 L110,30 L140,30 L140,40 L150,40 L150,50 L140,50 L140,60 L120,60 L120,70 L110,70 L110,80 L100,80 L100,90 L110,90 L110,120 L100,120 L100,140 L90,140 L90,150 L80,150 L80,160 L70,160 L70,180 L80,180 L80,190 L90,190 L90,200 L0,200 L0,170 L-10,170 L-10,160 L-20,160 L-20,150 L-30,150 L-30,90 L-20,90 L-20,60 L-40,60 L-40,50 L-50,50 L-50,40 L-40,40 L-40,30 L-10,30 L-10,10 L0,10 Z " fill="#482400" transform="translate(60,10)"/>
<path d="M0,0 L90,0 L90,10 L100,10 L100,20 L110,20 L110,30 L140,30 L140,40 L150,40 L150,50 L140,50 L140,60 L120,60 L120,70 L110,70 L110,60 L70,60 L70,70 L60,70 L60,60 L20,60 L20,70 L10,70 L10,60 L-10,60 L-10,90 L-20,90 L-20,60 L-40,60 L-40,50 L-50,50 L-50,40 L-40,40 L-40,30 L-10,30 L-10,10 L0,10 Z " fill="#482400" transform="translate(60,10)"/>
<path d="M0,0 L20,0 L20,10 L30,10 L30,0 L70,0 L70,10 L80,10 L80,0 L120,0 L120,20 L110,20 L110,50 L100,50 L100,60 L40,60 L40,30 L30,30 L30,20 L0,20 Z " fill="#F89068" transform="translate(50,70)"/>
<path d="M0,0 L10,0 L10,30 L70,30 L70,20 L80,20 L80,0 L90,0 L90,30 L80,30 L80,50 L70,50 L70,60 L60,60 L60,70 L50,70 L50,90 L60,90 L60,100 L70,100 L70,110 L40,110 L40,100 L30,100 L30,70 L10,70 L10,50 L0,50 Z " fill="#482400" transform="translate(80,100)"/>
<path d="M0,0 L40,0 L40,10 L60,10 L60,0 L80,0 L80,30 L120,30 L120,40 L-40,40 L-40,30 L-10,30 L-10,10 L0,10 Z " fill="#904800" transform="translate(70,20)"/>
<path d="M0,0 L90,0 L90,10 L70,10 L70,20 L50,20 L50,10 L10,10 L10,20 L0,20 L0,40 L-30,40 L-30,50 L-10,50 L-10,90 L-20,90 L-20,60 L-40,60 L-40,50 L-50,50 L-50,40 L-40,40 L-40,30 L-10,30 L-10,10 L0,10 Z " fill="#202420" transform="translate(60,10)"/>
<path d="M0,0 L10,0 L10,30 L0,30 L0,50 L-10,50 L-10,60 L-50,60 L-50,50 L-60,50 L-60,40 L-40,40 L-40,30 L-10,30 L-10,20 L0,20 Z " fill="#482400" transform="translate(160,100)"/>
<path d="M0,0 L160,0 L160,10 L0,10 Z " fill="#904800" transform="translate(30,50)"/>
<path d="M0,0 L20,0 L20,30 L30,30 L30,40 L-20,40 L-20,10 L0,10 Z " fill="#484848" transform="translate(90,170)"/>
<path d="M0,0 L10,0 L10,10 L20,10 L20,20 L50,20 L50,30 L60,30 L60,40 L50,40 L50,50 L30,50 L30,60 L20,60 L20,40 L40,40 L40,30 L0,30 Z " fill="#202420" transform="translate(150,20)"/>
<path d="M0,0 L20,0 L20,10 L30,10 L30,0 L70,0 L70,10 L80,10 L80,20 L60,20 L60,10 L40,10 L40,30 L30,30 L30,20 L0,20 Z " fill="#F89068" transform="translate(50,70)"/>
<path d="M0,0 L40,0 L40,20 L30,20 L30,40 L20,40 L20,20 L0,20 Z " fill="#904800" transform="translate(130,70)"/>
<path d="M0,0 L20,0 L20,10 L50,10 L50,20 L30,20 L30,50 L20,50 L20,20 L10,20 L10,10 L0,10 Z " fill="#202420" transform="translate(40,160)"/>
<path d="M0,0 L40,0 L40,20 L-10,20 L-10,10 L0,10 Z " fill="#D86C00" transform="translate(70,20)"/>
<path d="M0,0 L10,0 L10,20 L30,20 L30,30 L40,30 L40,40 L10,40 L10,30 L0,30 Z " fill="#484848" transform="translate(110,170)"/>
<path d="M0,0 L50,0 L50,20 L20,20 L20,10 L0,10 Z " fill="#F89068" transform="translate(40,150)"/>
<path d="M0,0 L10,0 L10,10 L20,10 L20,50 L10,50 L10,40 L0,40 Z " fill="#904800" transform="translate(60,100)"/>
<path d="M0,0 L20,0 L20,30 L30,30 L30,40 L10,40 L10,20 L0,20 Z " fill="#686C68" transform="translate(90,170)"/>
<path d="M0,0 L50,0 L50,10 L40,10 L40,30 L30,30 L30,10 L0,10 Z " fill="#202420" transform="translate(90,160)"/>
<path d="M0,0 L10,0 L10,30 L0,30 L0,50 L-10,50 L-10,40 L-20,40 L-20,30 L-10,30 L-10,20 L0,20 Z " fill="#202420" transform="translate(160,100)"/>
<path d="M0,0 L20,0 L20,20 L40,20 L40,30 L10,30 L10,20 L0,20 Z " fill="#686C68" transform="translate(90,80)"/>
<path d="M0,0 L10,0 L10,60 L0,60 Z " fill="#202420" transform="translate(30,100)"/>
<path d="M0,0 L30,0 L30,40 L20,40 L20,10 L0,10 Z " fill="#202420" transform="translate(20,60)"/>
<path d="M0,0 L60,0 L60,10 L0,10 Z " fill="#B06C68" transform="translate(60,40)"/>
<path d="M0,0 L10,0 L10,10 L20,10 L20,20 L10,20 L10,30 L0,30 Z " fill="#D86C00" transform="translate(60,100)"/>
<path d="M0,0 L40,0 L40,10 L0,10 Z " fill="#909090" transform="translate(110,90)"/>
<path d="M0,0 L40,0 L40,10 L0,10 Z " fill="#F89068" transform="translate(130,70)"/>
<path d="M0,0 L30,0 L30,10 L10,10 L10,20 L0,20 Z " fill="#202420" transform="translate(170,60)"/>
<path d="M0,0 L10,0 L10,10 L20,10 L20,20 L-10,20 L-10,10 L0,10 Z " fill="#904800" transform="translate(70,20)"/>
<path d="M0,0 L20,0 L20,20 L10,20 L10,10 L0,10 Z " fill="#904800" transform="translate(100,140)"/>
<path d="M0,0 L20,0 L20,20 L10,20 L10,10 L0,10 Z " fill="#202420" transform="translate(140,130)"/>
<path d="M0,0 L30,0 L30,10 L0,10 Z " fill="#202420" transform="translate(90,130)"/>
<path d="M0,0 L30,0 L30,10 L0,10 Z " fill="#686C68" transform="translate(100,100)"/>
<path d="M0,0 L10,0 L10,30 L0,30 Z " fill="#482400" transform="translate(150,20)"/>
<path d="M0,0 L10,0 L10,20 L0,20 Z " fill="#B0B4B0" transform="translate(90,170)"/>
<path d="M0,0 L20,0 L20,10 L0,10 Z " fill="#D86C00" transform="translate(40,160)"/>
<path d="M0,0 L20,0 L20,10 L0,10 Z " fill="#686C68" transform="translate(120,130)"/>
<path d="M0,0 L10,0 L10,20 L0,20 Z " fill="#484848" transform="translate(90,80)"/>
<path d="M0,0 L20,0 L20,10 L0,10 Z " fill="#482400" transform="translate(10,50)"/>
<path d="M0,0 L20,0 L20,10 L0,10 Z " fill="#B06C68" transform="translate(130,40)"/>
<path d="M0,0 L20,0 L20,10 L0,10 Z " fill="#482400" transform="translate(110,20)"/>
<path d="M0,0 L10,0 L10,10 L0,10 Z " fill="#202420" transform="translate(140,200)"/>
<path d="M0,0 L10,0 L10,10 L0,10 Z " fill="#B0B4B0" transform="translate(110,200)"/>
<path d="M0,0 L10,0 L10,10 L0,10 Z " fill="#686C68" transform="translate(100,200)"/>
<path d="M0,0 L10,0 L10,10 L0,10 Z " fill="#202420" transform="translate(130,190)"/>
<path d="M0,0 L10,0 L10,10 L0,10 Z " fill="#B0B4B0" transform="translate(100,190)"/>
<path d="M0,0 L10,0 L10,10 L0,10 Z " fill="#686C68" transform="translate(90,190)"/>
<path d="M0,0 L10,0 L10,10 L0,10 Z " fill="#B06C68" transform="translate(80,160)"/>
<path d="M0,0 L10,0 L10,10 L0,10 Z " fill="#202420" transform="translate(40,160)"/>
<path d="M0,0 L10,0 L10,10 L0,10 Z " fill="#202420" transform="translate(140,150)"/>
<path d="M0,0 L10,0 L10,10 L0,10 Z " fill="#B06C68" transform="translate(40,150)"/>
<path d="M0,0 L10,0 L10,10 L0,10 Z " fill="#482400" transform="translate(140,140)"/>
<path d="M0,0 L10,0 L10,10 L0,10 Z " fill="#904800" transform="translate(130,140)"/>
<path d="M0,0 L10,0 L10,10 L0,10 Z " fill="#484848" transform="translate(120,130)"/>
<path d="M0,0 L10,0 L10,10 L0,10 Z " fill="#482400" transform="translate(150,120)"/>
<path d="M0,0 L10,0 L10,10 L0,10 Z " fill="#B06C68" transform="translate(140,120)"/>
<path d="M0,0 L10,0 L10,10 L0,10 Z " fill="#B06C68" transform="translate(90,120)"/>
<path d="M0,0 L10,0 L10,10 L0,10 Z " fill="#B06C68" transform="translate(150,110)"/>
<path d="M0,0 L10,0 L10,10 L0,10 Z " fill="#904800" transform="translate(50,110)"/>
<path d="M0,0 L10,0 L10,10 L0,10 Z " fill="#904800" transform="translate(150,100)"/>
<path d="M0,0 L10,0 L10,10 L0,10 Z " fill="#484848" transform="translate(120,100)"/>
<path d="M0,0 L10,0 L10,10 L0,10 Z " fill="#484848" transform="translate(100,100)"/>
<path d="M0,0 L10,0 L10,10 L0,10 Z " fill="#904800" transform="translate(70,100)"/>
<path d="M0,0 L10,0 L10,10 L0,10 Z " fill="#202420" transform="translate(150,90)"/>
<path d="M0,0 L10,0 L10,10 L0,10 Z " fill="#909090" transform="translate(140,90)"/>
<path d="M0,0 L10,0 L10,10 L0,10 Z " fill="#B0B4B0" transform="translate(130,90)"/>
<path d="M0,0 L10,0 L10,10 L0,10 Z " fill="#B0B4B0" transform="translate(110,90)"/>
<path d="M0,0 L10,0 L10,10 L0,10 Z " fill="#202420" transform="translate(160,80)"/>
<path d="M0,0 L10,0 L10,10 L0,10 Z " fill="#B06C68" transform="translate(120,80)"/>
<path d="M0,0 L10,0 L10,10 L0,10 Z " fill="#909090" transform="translate(100,80)"/>
<path d="M0,0 L10,0 L10,10 L0,10 Z " fill="#B06C68" transform="translate(160,70)"/>
<path d="M0,0 L10,0 L10,10 L0,10 Z " fill="#904800" transform="translate(120,70)"/>
<path d="M0,0 L10,0 L10,10 L0,10 Z " fill="#904800" transform="translate(70,70)"/>
<path d="M0,0 L10,0 L10,10 L0,10 Z " fill="#B06C68" transform="translate(50,70)"/>
<path d="M0,0 L10,0 L10,10 L0,10 Z " fill="#482400" transform="translate(190,50)"/>
<path d="M0,0 L10,0 L10,10 L0,10 Z " fill="#202420" transform="translate(10,50)"/>
<path d="M0,0 L10,0 L10,10 L0,10 Z " fill="#F89068" transform="translate(130,40)"/>
<path d="M0,0 L10,0 L10,10 L0,10 Z " fill="#D86C00" transform="translate(120,40)"/>
<path d="M0,0 L10,0 L10,10 L0,10 Z " fill="#482400" transform="translate(50,40)"/>
<path d="M0,0 L10,0 L10,10 L0,10 Z " fill="#D86C00" transform="translate(140,30)"/>
<path d="M0,0 L10,0 L10,10 L0,10 Z " fill="#202420" transform="translate(150,20)"/>
<path d="M0,0 L10,0 L10,10 L0,10 Z " fill="#904800" transform="translate(100,20)"/>
<path d="M0,0 L10,0 L10,10 L0,10 Z " fill="#482400" transform="translate(60,20)"/>
</svg>
